<mxfile host="app.diagrams.net" modified="2020-10-09T04:27:38.961Z" agent="5.0 (Windows NT 10.0; Win64; x64) AppleWebKit/537.36 (KHTML, like Gecko) Chrome/86.0.4240.75 Safari/537.36" etag="NOvL273tn8HB_it-F50A" version="13.7.9" type="github">
  <diagram id="dAuasBkUgSq8A3f-juCa" name="Page-1">
    <mxGraphModel dx="1360" dy="834" grid="1" gridSize="10" guides="1" tooltips="1" connect="1" arrows="1" fold="1" page="1" pageScale="1" pageWidth="827" pageHeight="1169" math="0" shadow="0">
      <root>
        <mxCell id="0" />
        <mxCell id="1" parent="0" />
        <mxCell id="XcQa7XVQEId1qTrQ1qtS-3" style="edgeStyle=orthogonalEdgeStyle;rounded=0;orthogonalLoop=1;jettySize=auto;html=1;entryX=0.475;entryY=1.08;entryDx=0;entryDy=0;entryPerimeter=0;" edge="1" parent="1" source="XcQa7XVQEId1qTrQ1qtS-1" target="XcQa7XVQEId1qTrQ1qtS-2">
          <mxGeometry relative="1" as="geometry" />
        </mxCell>
        <mxCell id="XcQa7XVQEId1qTrQ1qtS-6" style="edgeStyle=orthogonalEdgeStyle;rounded=0;orthogonalLoop=1;jettySize=auto;html=1;entryX=0.468;entryY=0;entryDx=0;entryDy=0;entryPerimeter=0;" edge="1" parent="1" source="XcQa7XVQEId1qTrQ1qtS-1" target="XcQa7XVQEId1qTrQ1qtS-5">
          <mxGeometry relative="1" as="geometry" />
        </mxCell>
        <mxCell id="XcQa7XVQEId1qTrQ1qtS-1" value="&lt;font style=&quot;font-size: 14px&quot;&gt;&lt;b&gt;registry container&lt;/b&gt;&lt;/font&gt;" style="shape=process;whiteSpace=wrap;html=1;backgroundOutline=1;strokeWidth=2;" vertex="1" parent="1">
          <mxGeometry x="290" y="240" width="220" height="60" as="geometry" />
        </mxCell>
        <mxCell id="XcQa7XVQEId1qTrQ1qtS-2" value="&lt;b&gt;&lt;font style=&quot;font-size: 16px&quot;&gt;Nginx &amp;amp; htpasswd&lt;/font&gt;&lt;/b&gt;" style="rounded=0;whiteSpace=wrap;html=1;strokeWidth=2;fillColor=#fff2cc;strokeColor=#d6b656;" vertex="1" parent="1">
          <mxGeometry x="200" y="130" width="421" height="50" as="geometry" />
        </mxCell>
        <mxCell id="XcQa7XVQEId1qTrQ1qtS-4" value="port 5000" style="rounded=0;whiteSpace=wrap;html=1;strokeWidth=2;fillColor=none;opacity=0;" vertex="1" parent="1">
          <mxGeometry x="370" y="180" width="120" height="60" as="geometry" />
        </mxCell>
        <mxCell id="XcQa7XVQEId1qTrQ1qtS-5" value="&lt;span style=&quot;font-size: 16px&quot;&gt;&lt;b&gt;volume&lt;/b&gt;&lt;/span&gt;" style="rounded=0;whiteSpace=wrap;html=1;strokeWidth=2;fillColor=#dae8fc;strokeColor=#6c8ebf;" vertex="1" parent="1">
          <mxGeometry x="203" y="330" width="421" height="50" as="geometry" />
        </mxCell>
        <mxCell id="XcQa7XVQEId1qTrQ1qtS-8" value="" style="rounded=0;whiteSpace=wrap;html=1;strokeWidth=1;fillColor=none;" vertex="1" parent="1">
          <mxGeometry x="190" y="120" width="440" height="270" as="geometry" />
        </mxCell>
      </root>
    </mxGraphModel>
  </diagram>
</mxfile>
